Coordinates
version=1
nRows=38
nColumns=12
inDegrees=yes

Units are S.I. units (second, meters, Newtons, ...)
Angles are in degrees

endheader
time	SC_y	SC_z	SC_x	AC_y	AC_z	AC_x	GH_y	GH_z	GH_yy	EL_x	PS_y
       0.0              -31.39          31.17          57.97          47.34         -3.174         -7.428         -149.9          15.47         -152.5          79.21          152.0
  0.001122              -31.39          31.17          57.97          47.34         -3.174         -7.425         -149.9          15.47         -152.5          79.21          152.0
  0.002245              -31.39          31.17          57.97          47.33         -3.174         -7.421         -149.9          15.48         -152.4          79.22          152.0
  0.003367              -31.39          31.17          57.97          47.33         -3.174         -7.418         -149.9          15.48         -152.4          79.22          152.0
  0.004489               -31.4          31.16          57.97          47.33         -3.175         -7.414         -149.9          15.48         -152.3          79.22          152.0
  0.005612               -31.4          31.16          57.96          47.33         -3.175          -7.41         -149.9          15.48         -152.3          79.23          152.0
  0.006734               -31.4          31.16          57.96          47.33         -3.175         -7.406         -149.9          15.48         -152.2          79.23          152.0
  0.007856               -31.4          31.16          57.96          47.33         -3.175         -7.401         -149.9          15.49         -152.2          79.24          152.0
  0.008979              -31.41          31.16          57.96          47.33         -3.175         -7.397         -149.8          15.49         -152.1          79.24          152.0
    0.0101              -31.41          31.15          57.96          47.33         -3.176         -7.391         -149.8          15.49         -152.0          79.24          152.0
   0.01122              -31.42          31.15          57.96          47.33         -3.176         -7.386         -149.8           15.5         -151.9          79.25          152.0
   0.01235              -31.42          31.15          57.96          47.33         -3.176          -7.38         -149.8           15.5         -151.9          79.25          152.0
   0.01347              -31.42          31.14          57.96          47.33         -3.176         -7.373         -149.8           15.5         -151.8          79.26          152.0
   0.01459              -31.43          31.14          57.96          47.32         -3.177         -7.366         -149.8          15.51         -151.7          79.27          152.0
   0.01571              -31.43          31.14          57.96          47.32         -3.177         -7.359         -149.7          15.51         -151.6          79.27          152.0
   0.01683              -31.44          31.13          57.95          47.32         -3.177         -7.351         -149.7          15.52         -151.5          79.28          152.0
   0.01796              -31.45          31.13          57.95          47.32         -3.178         -7.342         -149.7          15.52         -151.3          79.29          152.0
   0.01908              -31.45          31.12          57.95          47.32         -3.178         -7.332         -149.7          15.53         -151.2           79.3          152.0
    0.0202              -31.46          31.12          57.95          47.32         -3.179         -7.322         -149.6          15.53         -151.1          79.31          152.0
   0.02132              -31.47          31.11          57.95          47.31         -3.179          -7.31         -149.6          15.54         -150.9          79.32          152.0
   0.02245              -31.48           31.1          57.94          47.31          -3.18         -7.297         -149.6          15.55         -150.7          79.33          152.0
   0.02357              -31.49           31.1          57.94          47.31          -3.18         -7.283         -149.5          15.55         -150.5          79.34          152.0
   0.02469               -31.5          31.09          57.94          47.31         -3.181         -7.268         -149.5          15.56         -150.3          79.36          151.9
   0.02581              -31.51          31.08          57.94           47.3         -3.182         -7.251         -149.4          15.57         -150.1          79.37          151.9
   0.02694              -31.52          31.07          57.93           47.3         -3.183         -7.232         -149.4          15.58         -149.8          79.39          151.9
   0.02806              -31.54          31.06          57.93           47.3         -3.184          -7.21         -149.3           15.6         -149.6          79.41          151.9
   0.02918              -31.55          31.05          57.93          47.29         -3.185         -7.187         -149.2          15.61         -149.2          79.43          151.9
    0.0303              -31.57          31.04          57.92          47.29         -3.186          -7.16         -149.2          15.63         -148.9          79.46          151.9
   0.03142              -31.59          31.02          57.92          47.28         -3.187         -7.129         -149.1          15.64         -148.5          79.48          151.9
   0.03255              -31.62           31.0          57.91          47.28         -3.189         -7.095         -149.0          15.66         -148.0          79.52          151.8
   0.03367              -31.65          30.98           57.9          47.27          -3.19         -7.056         -148.9          15.68         -147.5          79.55          151.8
   0.03479              -31.68          30.96          57.89          47.26         -3.192         -7.011         -148.7          15.71         -146.8          79.59          151.8
   0.03591              -31.71          30.93          57.89          47.25         -3.195         -6.959         -148.6          15.74         -146.1          79.64          151.7
   0.03704              -31.76           30.9          57.88          47.24         -3.197         -6.899         -148.4          15.77         -145.3           79.7          151.7
   0.03816              -31.81          30.87          57.86          47.23         -3.201         -6.828         -148.2          15.82         -144.3          79.76          151.7
   0.03928              -31.86          30.83          57.85          47.21         -3.204         -6.745         -148.0          15.86         -143.2          79.84          151.6
    0.0404              -31.93          30.78          57.83          47.19         -3.209         -6.646         -147.7          15.92         -141.9          79.93          151.5
   0.04153              -32.02          30.72          57.81          47.17         -3.214         -6.527         -147.4          15.99         -140.2          80.04          151.5
